<svg width="32" height="38" viewBox="0 0 32 38" fill="none" xmlns="http://www.w3.org/2000/svg">
<g filter="url(#filter0_i_20_16)">
<path d="M26.2157 12.4358H29.6789C30.1382 12.4358 30.5786 12.6226 30.9033 12.9551C31.2281 13.2875 31.4105 13.7385 31.4105 14.2087V35.4837C31.4105 35.9539 31.2281 36.4049 30.9033 36.7373C30.5786 37.0698 30.1382 37.2566 29.6789 37.2566H1.97364C1.5144 37.2566 1.07397 37.0698 0.749233 36.7373C0.424499 36.4049 0.242065 35.9539 0.242065 35.4837V14.2087C0.242065 13.7385 0.424499 13.2875 0.749233 12.9551C1.07397 12.6226 1.5144 12.4358 1.97364 12.4358H5.4368V10.6629C5.4368 7.84162 6.5314 5.13593 8.47981 3.14101C10.4282 1.14609 13.0708 0.0253601 15.8263 0.0253601C18.5817 0.0253601 21.2243 1.14609 23.1727 3.14101C25.1211 5.13593 26.2157 7.84162 26.2157 10.6629V12.4358ZM3.70522 15.9816V33.7108H27.9473V15.9816H3.70522ZM14.0947 23.0733H17.5579V26.6191H14.0947V23.0733ZM7.16838 23.0733H10.6315V26.6191H7.16838V23.0733ZM21.021 23.0733H24.4842V26.6191H21.021V23.0733ZM22.7526 12.4358V10.6629C22.7526 8.78203 22.0229 6.97824 20.7239 5.64829C19.425 4.31835 17.6632 3.57119 15.8263 3.57119C13.9893 3.57119 12.2276 4.31835 10.9286 5.64829C9.62969 6.97824 8.89996 8.78203 8.89996 10.6629V12.4358H22.7526Z" fill="#FFC700"/>
</g>
<defs>
<filter id="filter0_i_20_16" x="0.242065" y="0.0253601" width="31.1685" height="41.2312" filterUnits="userSpaceOnUse" color-interpolation-filters="sRGB">
<feFlood flood-opacity="0" result="BackgroundImageFix"/>
<feBlend mode="normal" in="SourceGraphic" in2="BackgroundImageFix" result="shape"/>
<feColorMatrix in="SourceAlpha" type="matrix" values="0 0 0 0 0 0 0 0 0 0 0 0 0 0 0 0 0 0 127 0" result="hardAlpha"/>
<feOffset dy="4"/>
<feGaussianBlur stdDeviation="2"/>
<feComposite in2="hardAlpha" operator="arithmetic" k2="-1" k3="1"/>
<feColorMatrix type="matrix" values="0 0 0 0 0 0 0 0 0 0 0 0 0 0 0 0 0 0 0.25 0"/>
<feBlend mode="normal" in2="shape" result="effect1_innerShadow_20_16"/>
</filter>
</defs>
</svg>
