<svg width="26" height="31" viewBox="0 0 26 31" fill="none" xmlns="http://www.w3.org/2000/svg">
<g filter="url(#filter0_i_20_22)">
<path d="M24.5972 25.2138C23.9585 23.5101 23.0318 21.9626 21.8685 20.6575C20.7088 19.3485 19.335 18.3049 17.823 17.5843C17.8094 17.5767 17.7959 17.5729 17.7823 17.5652C19.8914 15.8494 21.2625 13.0546 21.2625 9.90139C21.2625 4.67777 17.5047 0.445496 12.8667 0.445496C8.22868 0.445496 4.47087 4.67777 4.47087 9.90139C4.47087 13.0546 5.84196 15.8494 7.95108 17.569C7.93754 17.5767 7.92399 17.5805 7.91045 17.5881C6.39379 18.3087 5.03285 19.342 3.86488 20.6613C2.7027 21.9674 1.77609 23.5147 1.13623 25.2176C0.507637 26.8848 0.16862 28.6723 0.137536 30.4832C0.136632 30.5239 0.14297 30.5644 0.156175 30.6023C0.169381 30.6402 0.189187 30.6747 0.214427 30.7038C0.239667 30.733 0.269829 30.7561 0.303137 30.7719C0.336446 30.7877 0.372226 30.7959 0.408369 30.7959H2.43962C2.58858 30.7959 2.70707 30.6624 2.71045 30.4985C2.77816 27.5549 3.82764 24.7982 5.68285 22.7088C7.60238 20.5469 10.1516 19.3573 12.8667 19.3573C15.5818 19.3573 18.131 20.5469 20.0506 22.7088C21.9058 24.7982 22.9552 27.5549 23.023 30.4985C23.0263 30.6662 23.1448 30.7959 23.2938 30.7959H25.325C25.3612 30.7959 25.397 30.7877 25.4303 30.7719C25.4636 30.7561 25.4937 30.733 25.519 30.7038C25.5442 30.6747 25.564 30.6402 25.5772 30.6023C25.5904 30.5644 25.5968 30.5239 25.5959 30.4832C25.562 28.6607 25.2269 26.8877 24.5972 25.2138ZM12.8667 16.4595C11.3128 16.4595 9.8503 15.777 8.75004 14.5378C7.64978 13.2986 7.04379 11.6515 7.04379 9.90139C7.04379 8.15128 7.64978 6.50413 8.75004 5.26495C9.8503 4.02577 11.3128 3.34327 12.8667 3.34327C14.4206 3.34327 15.8831 4.02577 16.9834 5.26495C18.0836 6.50413 18.6896 8.15128 18.6896 9.90139C18.6896 11.6515 18.0836 13.2986 16.9834 14.5378C15.8831 15.777 14.4206 16.4595 12.8667 16.4595Z" fill="#FFC700"/>
</g>
<defs>
<filter id="filter0_i_20_22" x="0.137451" y="0.445496" width="25.4585" height="34.3504" filterUnits="userSpaceOnUse" color-interpolation-filters="sRGB">
<feFlood flood-opacity="0" result="BackgroundImageFix"/>
<feBlend mode="normal" in="SourceGraphic" in2="BackgroundImageFix" result="shape"/>
<feColorMatrix in="SourceAlpha" type="matrix" values="0 0 0 0 0 0 0 0 0 0 0 0 0 0 0 0 0 0 127 0" result="hardAlpha"/>
<feOffset dy="4"/>
<feGaussianBlur stdDeviation="2"/>
<feComposite in2="hardAlpha" operator="arithmetic" k2="-1" k3="1"/>
<feColorMatrix type="matrix" values="0 0 0 0 0 0 0 0 0 0 0 0 0 0 0 0 0 0 0.25 0"/>
<feBlend mode="normal" in2="shape" result="effect1_innerShadow_20_22"/>
</filter>
</defs>
</svg>
